# xmcd
#
# Track frame offsets:
#	150
#	17499
#	34396
#	53309
#	71700
#	89980
#	110977
#	128246
#	146522
#	172785
#	196670
#	218351
#	232640
#	248430
#
# Disc length: 3529 seconds
#
# Revision: 0
# Processed by: cddbd v1.5.2PL0 Copyright (c) Steve Scherf et al.
# Submitted via: dBpowerAMP V4.0
#
DISCID=b20dc70e
DTITLE=Adele - Rolling in the deep
DYEAR=2011
DGENRE=Blues
TTITLE0=Rolling in the deep
TTITLE1=Rumor has it
TTITLE2=Turning tables
TTITLE3=Dont you remember
TTITLE4=Set fire to rain
TTITLE5=He wont go
TTITLE6=Take it all
TTITLE7=ill be waiting
TTITLE8=One and only
TTITLE9=Lovesong
TTITLE10=Someone like you
TTITLE11=If hadnt been for love
TTITLE12=hiding my heart
TTITLE13=Bonus track
EXTD=
EXTT0=
EXTT1=
EXTT2=
EXTT3=
EXTT4=
EXTT5=
EXTT6=
EXTT7=
EXTT8=
EXTT9=
EXTT10=
EXTT11=
EXTT12=
EXTT13=
PLAYORDER=
